<svg width="735" height="198" viewBox="0 0 735 198" fill="none" xmlns="http://www.w3.org/2000/svg">
<path d="M34.9819 146.583C30.4201 146.583 26.3005 145.978 22.623 144.768C18.9456 143.604 15.7803 141.905 13.127 139.671C10.4271 137.437 8.35563 134.783 6.9126 131.711C5.51611 128.639 4.81787 125.241 4.81787 121.517C4.81787 118.398 5.30664 115.465 6.28418 112.719C7.30827 109.926 8.72803 107.505 10.5435 105.457C12.3589 103.409 14.4769 101.826 16.8975 100.709C19.318 99.5452 21.8783 98.9634 24.5781 98.9634C27.9297 98.9634 30.7459 99.8013 33.0269 101.477C35.3078 103.153 36.7275 105.457 37.2861 108.39C32.3053 108.39 28.3486 109.716 25.416 112.37C24.0195 113.626 22.9256 115.163 22.1343 116.978C21.3895 118.793 21.0171 120.795 21.0171 122.983C21.0171 127.172 22.2274 130.501 24.6479 132.968C27.1151 135.388 30.4201 136.599 34.563 136.599C37.0301 136.599 39.3343 136.156 41.4756 135.272C43.6169 134.341 45.4788 133.084 47.0615 131.501C48.6442 129.919 49.8545 128.034 50.6924 125.846C51.5768 123.611 52.019 121.237 52.019 118.724C52.019 114.069 50.4364 109.228 47.271 104.2C46.0142 102.245 44.6177 100.337 43.0815 98.4746C41.592 96.5661 39.4972 94.0524 36.7974 90.9336C34.3768 88.1406 32.3519 85.7201 30.7227 83.6719C29.0934 81.6237 27.6271 79.529 26.3237 77.3877C23.1584 72.2207 21.5757 67.1468 21.5757 62.166C21.5757 58.4421 22.367 54.9974 23.9497 51.832C25.5324 48.6201 27.79 45.8271 30.7227 43.4531C33.6553 41.0791 37.0767 39.2404 40.9868 37.937C44.897 36.6336 49.1097 35.9819 53.625 35.9819C61.3057 35.9819 67.4735 37.7974 72.1284 41.4282C74.3628 43.1971 76.0618 45.3151 77.2256 47.7822C78.4359 50.2493 79.041 52.9958 79.041 56.0215C79.041 59.9782 78.0402 63.2134 76.0386 65.7271C75.1076 66.9373 73.9438 67.8683 72.5474 68.52C71.1974 69.1717 69.7544 69.4976 68.2183 69.4976C64.634 69.4976 61.7246 68.008 59.4902 65.0288C61.3057 63.7254 62.7254 62.0031 63.7495 59.8618C64.8201 57.674 65.3555 55.3465 65.3555 52.8794C65.3555 49.8071 64.4478 47.3866 62.6323 45.6177C60.8169 43.8022 58.3265 42.8945 55.1611 42.8945C53.2526 42.8945 51.4837 43.2437 49.8545 43.9419C48.2718 44.6401 46.9219 45.641 45.8047 46.9443C44.641 48.2477 43.7332 49.7839 43.0815 51.5527C42.4764 53.3216 42.1738 55.2534 42.1738 57.3481C42.1738 60.3273 42.8721 63.1901 44.2686 65.9365C45.665 68.6829 47.6667 71.5457 50.2734 74.5249C52.6009 77.2713 55.1146 79.9945 57.8145 82.6943C64.0986 89.2113 68.5441 95.5653 71.1509 101.756C72.687 105.434 73.4551 109.484 73.4551 113.906C73.4551 118.561 72.5008 122.89 70.5923 126.893C68.6838 130.85 65.9606 134.294 62.4229 137.227C58.8851 140.206 54.7655 142.51 50.064 144.14C45.3625 145.769 40.3351 146.583 34.9819 146.583ZM98.7314 144.838C93.2852 144.838 88.8862 143.139 85.5347 139.741C81.6245 135.737 79.6694 129.779 79.6694 121.866C79.6694 118.514 80.0186 114.976 80.7168 111.252C81.3685 107.528 82.346 103.851 83.6494 100.22C86.6286 92.0275 90.7017 85.4175 95.8687 80.3901C101.827 74.6646 108.693 71.8018 116.467 71.8018C120.33 71.8018 123.216 72.4767 125.125 73.8267C127.08 75.13 128.058 76.8757 128.058 79.0635V80.1108L129.594 72.5H150.192L139.928 121.098C139.509 122.494 139.299 124.03 139.299 125.706C139.299 129.802 141.254 131.851 145.165 131.851C147.771 131.851 150.145 130.524 152.287 127.871C154.102 125.636 155.592 122.471 156.755 118.375H162.76C160.2 125.636 157.104 131.385 153.474 135.621C150.401 139.112 146.933 141.626 143.07 143.162C140.23 144.279 137.228 144.838 134.062 144.838C130.013 144.838 126.778 143.744 124.357 141.556C121.983 139.322 120.54 136.04 120.028 131.711C117.328 135.528 114.488 138.507 111.509 140.648C107.692 143.441 103.433 144.838 98.7314 144.838ZM108.018 131.013C109.089 131.013 110.206 130.733 111.37 130.175C112.58 129.616 113.744 128.825 114.861 127.801C117.375 125.38 119.05 122.238 119.888 118.375L126.731 86.1157C126.731 85.6502 126.615 85.1149 126.382 84.5098C126.196 83.8581 125.916 83.2529 125.544 82.6943C124.427 81.3444 122.867 80.6694 120.866 80.6694C118.957 80.6694 117.095 81.2979 115.28 82.5547C113.511 83.8115 111.835 85.5571 110.252 87.7915C107.459 91.8413 105.155 97.1247 103.34 103.642C102.502 106.528 101.874 109.39 101.455 112.23C101.036 115.023 100.826 117.56 100.826 119.841C100.826 124.589 101.711 127.801 103.479 129.477C104.085 130.128 104.76 130.547 105.504 130.733C106.249 130.92 107.087 131.013 108.018 131.013ZM173.094 144.838C167.555 144.838 163.249 143.441 160.177 140.648C157.104 137.809 155.568 133.596 155.568 128.01C155.568 125.683 155.801 123.379 156.267 121.098L166.531 72.5H187.129L176.865 121.098C176.353 123.379 176.097 125.101 176.097 126.265C176.097 127.754 176.492 128.918 177.284 129.756C178.075 130.594 179.309 131.013 180.984 131.013C183.219 131.013 185.407 130.221 187.548 128.639C189.689 127.056 191.714 124.868 193.623 122.075C195.391 119.515 197.021 116.536 198.51 113.138C200.046 109.74 201.35 106.225 202.42 102.594C203.444 99.0565 204.236 95.6118 204.794 92.2603C205.4 88.8621 205.702 85.8597 205.702 83.2529C205.516 83.6719 204.841 84.021 203.677 84.3003C202.932 84.533 202.095 84.6494 201.164 84.6494C199.534 84.6494 198.254 83.8581 197.323 82.2754C196.439 80.9255 195.997 79.2962 195.997 77.3877C195.997 75.0602 196.741 73.1982 198.231 71.8018C199.721 70.3587 201.932 69.6372 204.864 69.6372C208.03 69.6372 210.38 70.9173 211.917 73.4775C213.22 75.6188 213.872 78.4816 213.872 82.0659C213.872 86.0226 213.522 90.3052 212.824 94.9136C212.173 99.522 211.172 104.061 209.822 108.529C206.563 119.143 202.164 127.498 196.625 133.596C189.922 141.091 182.078 144.838 173.094 144.838ZM236.495 144.838C229.466 144.838 224.043 143.069 220.226 139.531C216.176 135.761 214.151 129.965 214.151 122.145C214.151 119.212 214.453 115.954 215.059 112.37C215.617 108.785 216.478 105.201 217.642 101.617C218.945 97.6134 220.598 93.8197 222.6 90.2354C224.648 86.651 227.022 83.4857 229.722 80.7393C235.959 74.4085 243.64 71.2432 252.764 71.2432C258.582 71.2432 262.818 72.6396 265.472 75.4326C267.52 77.6204 268.544 80.7858 268.544 84.9287C268.544 88.9785 267.66 92.7956 265.891 96.3799C264.122 99.9176 261.678 103.06 258.559 105.806C255.44 108.506 251.903 110.671 247.946 112.3C243.989 113.882 239.893 114.813 235.657 115.093C235.424 117.513 235.308 119.422 235.308 120.818C235.308 125.473 236.192 128.685 237.961 130.454C239.497 132.037 242.057 132.828 245.642 132.828C250.809 132.828 255.533 131.432 259.816 128.639C261.631 127.475 263.377 126.102 265.053 124.519C266.729 122.89 268.684 120.842 270.918 118.375H275.806C271.29 126.009 266.1 132.083 260.235 136.599C253.02 142.091 245.106 144.838 236.495 144.838ZM236.774 108.25C239.427 108.064 242.011 107.296 244.524 105.946C247.038 104.596 249.272 102.827 251.228 100.639C253.183 98.4048 254.719 95.9144 255.836 93.168C256.953 90.375 257.512 87.5355 257.512 84.6494C257.512 82.7409 257.232 81.2979 256.674 80.3203C256.162 79.2962 255.254 78.7842 253.951 78.7842C252.228 78.7842 250.483 79.6221 248.714 81.2979C246.992 82.9736 245.316 85.2778 243.687 88.2104C242.197 90.9569 240.847 94.0757 239.637 97.5669C238.426 101.058 237.472 104.619 236.774 108.25ZM313.65 49.3184H311.975C303.503 49.3184 297.125 51.2502 292.843 55.1138C287.676 59.7687 285.092 67.4727 285.092 78.2256C285.092 81.2048 285.418 83.5788 286.07 85.3477C286.256 85.9528 286.489 86.4881 286.768 86.9536C286.954 87.2795 287.047 87.6053 287.047 87.9312C281.88 87.9312 278.11 86.9071 275.736 84.8589C273.083 82.6245 271.756 79.0402 271.756 74.106C271.756 69.1717 272.664 64.4935 274.479 60.0713C276.341 55.6025 279.157 51.6924 282.928 48.3408C286.978 44.71 292.121 41.8937 298.359 39.8921C304.643 37.8905 312.044 36.8896 320.563 36.8896C325.451 36.8896 330.129 37.1689 334.598 37.7275C335.994 37.8672 337.81 38.1232 340.044 38.4956C343.768 39.1938 347.352 39.6593 350.797 39.8921C352.473 40.0783 354.591 40.1714 357.151 40.1714C360.316 40.1714 363.342 39.8921 366.228 39.3335C369.114 38.7749 371.628 38.0534 373.769 37.1689C373.536 43.4066 371.93 47.9917 368.951 50.9243C366.019 53.8569 361.666 55.3232 355.894 55.3232C352.775 55.3232 349.633 55.0672 346.468 54.5552C343.302 54.0431 339.043 53.2518 333.69 52.1812L313.93 144H293.401L313.65 49.3184ZM391.365 144.838C385.453 144.838 381.077 143.162 378.238 139.811C375.771 136.924 374.537 133.224 374.537 128.708C374.537 126.567 374.793 124.077 375.305 121.237C375.864 118.398 376.678 114.744 377.749 110.275C378.82 105.713 379.611 102.082 380.123 99.3823C380.682 96.6359 380.961 94.2619 380.961 92.2603C380.961 87.3726 379.239 84.9287 375.794 84.9287C373.373 84.9287 371.139 86.2088 369.091 88.769C367.368 90.9569 365.879 94.0757 364.622 98.1255L354.917 144H334.318L355.056 46.7349L376.213 43.8721L368.532 79.9014C371.325 76.7826 374.328 74.5947 377.54 73.3379C379.914 72.4069 382.474 71.9414 385.22 71.9414C390.061 71.9414 393.878 73.1982 396.671 75.7119C399.651 78.4583 401.14 82.578 401.14 88.0708C401.14 91.3758 400.535 95.6816 399.325 100.988C398.999 102.524 398.464 104.829 397.719 107.901C396.369 113.068 395.391 117.188 394.786 120.26C394.414 122.215 394.228 123.798 394.228 125.008C394.228 126.916 394.646 128.406 395.484 129.477C396.369 130.501 397.858 131.013 399.953 131.013C402.793 131.013 405.19 129.849 407.145 127.521C408.635 125.753 410.241 122.704 411.963 118.375H417.968C414.43 128.848 409.961 136.18 404.562 140.369C400.744 143.348 396.346 144.838 391.365 144.838ZM432.421 144.838C425.392 144.838 419.969 143.069 416.152 139.531C412.103 135.761 410.078 129.965 410.078 122.145C410.078 119.212 410.38 115.954 410.985 112.37C411.544 108.785 412.405 105.201 413.569 101.617C414.872 97.6134 416.525 93.8197 418.526 90.2354C420.575 86.651 422.949 83.4857 425.648 80.7393C431.886 74.4085 439.567 71.2432 448.69 71.2432C454.509 71.2432 458.745 72.6396 461.398 75.4326C463.447 77.6204 464.471 80.7858 464.471 84.9287C464.471 88.9785 463.586 92.7956 461.817 96.3799C460.049 99.9176 457.605 103.06 454.486 105.806C451.367 108.506 447.829 110.671 443.873 112.3C439.916 113.882 435.819 114.813 431.583 115.093C431.351 117.513 431.234 119.422 431.234 120.818C431.234 125.473 432.119 128.685 433.888 130.454C435.424 132.037 437.984 132.828 441.568 132.828C446.735 132.828 451.46 131.432 455.743 128.639C457.558 127.475 459.304 126.102 460.979 124.519C462.655 122.89 464.61 120.842 466.845 118.375H471.732C467.217 126.009 462.027 132.083 456.162 136.599C448.946 142.091 441.033 144.838 432.421 144.838ZM432.701 108.25C435.354 108.064 437.938 107.296 440.451 105.946C442.965 104.596 445.199 102.827 447.154 100.639C449.109 98.4048 450.646 95.9144 451.763 93.168C452.88 90.375 453.438 87.5355 453.438 84.6494C453.438 82.7409 453.159 81.2979 452.601 80.3203C452.089 79.2962 451.181 78.7842 449.877 78.7842C448.155 78.7842 446.41 79.6221 444.641 81.2979C442.918 82.9736 441.243 85.2778 439.613 88.2104C438.124 90.9569 436.774 94.0757 435.563 97.5669C434.353 101.058 433.399 104.619 432.701 108.25Z" fill="white"/>
<path d="M519.492 145.885C513.72 145.885 507.901 143.348 502.036 138.274L500.849 144H480.321L499.732 53.019L520.889 50.2261L503.712 130.384C506.319 132.293 509.042 133.247 511.881 133.247C514.628 133.247 517.235 132.386 519.702 130.664C522.215 128.941 524.52 126.497 526.614 123.332C530.478 117.513 533.62 109.553 536.041 99.4521C538.228 90.0026 539.322 80.297 539.322 70.3354C539.322 61.0256 537.414 54.0897 533.597 49.5278C530.059 45.3849 525.008 43.3135 518.445 43.3135C513.138 43.3135 508.204 44.1048 503.642 45.6875C499.08 47.2702 495.124 49.5511 491.772 52.5303C488.327 55.6025 485.674 59.3032 483.812 63.6323C481.95 67.9614 481.019 72.7793 481.019 78.0859C481.019 81.0651 481.345 83.4391 481.997 85.208C482.183 85.8132 482.416 86.3485 482.695 86.814C482.881 87.1398 482.974 87.4657 482.974 87.7915C477.993 87.7915 474.2 86.7674 471.593 84.7192C468.986 82.6245 467.683 79.2264 467.683 74.5249C467.683 71.313 468.311 68.1476 469.568 65.0288C470.825 61.8634 472.64 58.861 475.014 56.0215C477.342 53.2285 480.135 50.6683 483.393 48.3408C486.698 45.9668 490.306 43.9186 494.216 42.1963C502.502 38.5654 511.393 36.75 520.889 36.75C529.687 36.75 537.088 38.6818 543.093 42.5454C548.586 46.1297 552.682 51.1105 555.382 57.4878C557.849 63.5392 559.083 70.3587 559.083 77.9463C559.083 83.2995 558.594 88.7225 557.616 94.2153C556.685 99.7082 555.335 105.015 553.566 110.135C551.798 115.163 549.68 119.864 547.212 124.24C544.792 128.569 542.115 132.339 539.183 135.551C536.157 138.856 532.968 141.417 529.617 143.232C526.312 145.001 522.937 145.885 519.492 145.885ZM578.843 144.838C573.396 144.838 568.998 143.139 565.646 139.741C561.736 135.737 559.781 129.779 559.781 121.866C559.781 118.514 560.13 114.976 560.828 111.252C561.48 107.528 562.457 103.851 563.761 100.22C566.74 92.0275 570.813 85.4175 575.98 80.3901C581.938 74.6646 588.804 71.8018 596.578 71.8018C600.442 71.8018 603.328 72.4767 605.236 73.8267C607.191 75.13 608.169 76.8757 608.169 79.0635V80.1108L609.705 72.5H630.303L620.039 121.098C619.62 122.494 619.411 124.03 619.411 125.706C619.411 129.802 621.366 131.851 625.276 131.851C627.883 131.851 630.257 130.524 632.398 127.871C634.213 125.636 635.703 122.471 636.867 118.375H642.872C640.311 125.636 637.216 131.385 633.585 135.621C630.513 139.112 627.045 141.626 623.181 143.162C620.342 144.279 617.339 144.838 614.174 144.838C610.124 144.838 606.889 143.744 604.468 141.556C602.094 139.322 600.651 136.04 600.139 131.711C597.439 135.528 594.6 138.507 591.621 140.648C587.804 143.441 583.544 144.838 578.843 144.838ZM588.129 131.013C589.2 131.013 590.317 130.733 591.481 130.175C592.691 129.616 593.855 128.825 594.972 127.801C597.486 125.38 599.162 122.238 600 118.375L606.842 86.1157C606.842 85.6502 606.726 85.1149 606.493 84.5098C606.307 83.8581 606.028 83.2529 605.655 82.6943C604.538 81.3444 602.979 80.6694 600.977 80.6694C599.069 80.6694 597.207 81.2979 595.391 82.5547C593.622 83.8115 591.946 85.5571 590.364 87.7915C587.571 91.8413 585.267 97.1247 583.451 103.642C582.613 106.528 581.985 109.39 581.566 112.23C581.147 115.023 580.938 117.56 580.938 119.841C580.938 124.589 581.822 127.801 583.591 129.477C584.196 130.128 584.871 130.547 585.616 130.733C586.361 130.92 587.198 131.013 588.129 131.013ZM651.111 144.838C646.549 144.838 642.941 143.488 640.288 140.788C637.309 137.809 635.819 133.457 635.819 127.731C635.819 125.031 636.192 121.912 636.937 118.375L645.525 78.2256H640.777L641.964 72.5H646.642L650.971 52.7397L672.128 49.877L667.24 72.5H675.829L674.711 78.2256H666.123L656.976 121.098C656.604 122.308 656.417 123.844 656.417 125.706C656.417 127.661 656.86 129.034 657.744 129.826C658.675 130.617 660.165 131.013 662.213 131.013C663.609 131.013 664.959 130.71 666.263 130.105C667.613 129.453 668.846 128.569 669.963 127.452C672.244 125.171 673.967 122.145 675.13 118.375H681.135C678.575 125.59 675.363 131.339 671.5 135.621C668.241 139.112 664.564 141.626 660.467 143.162C657.488 144.279 654.369 144.838 651.111 144.838ZM695.659 144.838C688.63 144.838 683.207 143.069 679.39 139.531C675.34 135.761 673.315 129.965 673.315 122.145C673.315 119.212 673.618 115.954 674.223 112.37C674.781 108.785 675.642 105.201 676.806 101.617C678.11 97.6134 679.762 93.8197 681.764 90.2354C683.812 86.651 686.186 83.4857 688.886 80.7393C695.123 74.4085 702.804 71.2432 711.928 71.2432C717.746 71.2432 721.982 72.6396 724.636 75.4326C726.684 77.6204 727.708 80.7858 727.708 84.9287C727.708 88.9785 726.824 92.7956 725.055 96.3799C723.286 99.9176 720.842 103.06 717.723 105.806C714.604 108.506 711.067 110.671 707.11 112.3C703.153 113.882 699.057 114.813 694.821 115.093C694.588 117.513 694.472 119.422 694.472 120.818C694.472 125.473 695.356 128.685 697.125 130.454C698.661 132.037 701.221 132.828 704.806 132.828C709.973 132.828 714.697 131.432 718.98 128.639C720.795 127.475 722.541 126.102 724.217 124.519C725.893 122.89 727.848 120.842 730.082 118.375H734.97C730.454 126.009 725.264 132.083 719.399 136.599C712.184 142.091 704.27 144.838 695.659 144.838ZM695.938 108.25C698.591 108.064 701.175 107.296 703.688 105.946C706.202 104.596 708.437 102.827 710.392 100.639C712.347 98.4048 713.883 95.9144 715 93.168C716.117 90.375 716.676 87.5355 716.676 84.6494C716.676 82.7409 716.396 81.2979 715.838 80.3203C715.326 79.2962 714.418 78.7842 713.115 78.7842C711.392 78.7842 709.647 79.6221 707.878 81.2979C706.156 82.9736 704.48 85.2778 702.851 88.2104C701.361 90.9569 700.011 94.0757 698.801 97.5669C697.59 101.058 696.636 104.619 695.938 108.25Z" fill="#FD8824"/>
</svg>
